%TF.GenerationSoftware,KiCad,Pcbnew,8.0.0*%
%TF.CreationDate,2024-12-16T23:26:22-03:00*%
%TF.ProjectId,AC220vtoDC3v3,41433232-3076-4746-9f44-433376332e6b,rev?*%
%TF.SameCoordinates,Original*%
%TF.FileFunction,Copper,L2,Bot*%
%TF.FilePolarity,Positive*%
%FSLAX46Y46*%
G04 Gerber Fmt 4.6, Leading zero omitted, Abs format (unit mm)*
G04 Created by KiCad (PCBNEW 8.0.0) date 2024-12-16 23:26:22*
%MOMM*%
%LPD*%
G01*
G04 APERTURE LIST*
%TA.AperFunction,ComponentPad*%
%ADD10R,3.000000X3.000000*%
%TD*%
%TA.AperFunction,ComponentPad*%
%ADD11C,3.000000*%
%TD*%
%TA.AperFunction,ComponentPad*%
%ADD12C,1.600000*%
%TD*%
%TA.AperFunction,ComponentPad*%
%ADD13R,1.600000X1.600000*%
%TD*%
%TA.AperFunction,ComponentPad*%
%ADD14C,1.800000*%
%TD*%
%TA.AperFunction,ComponentPad*%
%ADD15R,1.700000X1.700000*%
%TD*%
%TA.AperFunction,ComponentPad*%
%ADD16O,1.700000X1.700000*%
%TD*%
%TA.AperFunction,ComponentPad*%
%ADD17C,2.400000*%
%TD*%
%TA.AperFunction,ComponentPad*%
%ADD18C,2.600000*%
%TD*%
%TA.AperFunction,ComponentPad*%
%ADD19O,1.700000X2.000000*%
%TD*%
%TA.AperFunction,ComponentPad*%
%ADD20R,1.700000X2.000000*%
%TD*%
%TA.AperFunction,Conductor*%
%ADD21C,1.000000*%
%TD*%
%TA.AperFunction,Conductor*%
%ADD22C,2.000000*%
%TD*%
G04 APERTURE END LIST*
D10*
%TO.P,L1,1,1*%
%TO.N,Net-(C1-Pad1)*%
X96487500Y-38340000D03*
D11*
%TO.P,L1,2,2*%
%TO.N,Net-(PS1-AC{slash}L)*%
X90137500Y-38340000D03*
%TO.P,L1,3,3*%
%TO.N,Net-(PS1-AC{slash}N)*%
X90137500Y-53580000D03*
%TO.P,L1,4,4*%
%TO.N,NEUT*%
X96487500Y-53580000D03*
%TD*%
D12*
%TO.P,C2,2*%
%TO.N,GND*%
X149620000Y-44642380D03*
D13*
%TO.P,C2,1*%
%TO.N,+3V3*%
X149620000Y-47142380D03*
%TD*%
D14*
%TO.P,RV1,1*%
%TO.N,NEUT*%
X67540000Y-49710000D03*
%TO.P,RV1,2*%
%TO.N,Net-(C1-Pad1)*%
X69740000Y-42210000D03*
%TD*%
D15*
%TO.P,F1,1*%
%TO.N,Net-(C1-Pad1)*%
X62640000Y-35060000D03*
D16*
%TO.P,F1,2*%
%TO.N,LINE*%
X60100000Y-35060000D03*
%TD*%
%TO.P,J2,2,Pin_2*%
%TO.N,GND*%
X157430000Y-44600000D03*
D15*
%TO.P,J2,1,Pin_1*%
%TO.N,+3V3*%
X157430000Y-47140000D03*
%TD*%
D17*
%TO.P,C1,1*%
%TO.N,Net-(C1-Pad1)*%
X79523750Y-34710000D03*
%TO.P,C1,2*%
%TO.N,NEUT*%
X79523750Y-57210000D03*
%TD*%
D18*
%TO.P,J1,1,Pin_1*%
%TO.N,NEUT*%
X51960000Y-48500000D03*
%TO.P,J1,2,Pin_2*%
%TO.N,LINE*%
X51960000Y-43420000D03*
%TD*%
D19*
%TO.P,PS1,4,+Vout*%
%TO.N,+3V3*%
X139436250Y-55002500D03*
%TO.P,PS1,3,-Vout*%
%TO.N,GND*%
X139436250Y-37002500D03*
%TO.P,PS1,2,AC/N*%
%TO.N,Net-(PS1-AC{slash}N)*%
X105836250Y-49002500D03*
D20*
%TO.P,PS1,1,AC/L*%
%TO.N,Net-(PS1-AC{slash}L)*%
X105836250Y-43002500D03*
%TD*%
D21*
%TO.N,+3V3*%
X157427620Y-47142380D02*
X157430000Y-47140000D01*
X149620000Y-47142380D02*
X157427620Y-47142380D01*
%TO.N,GND*%
X157387620Y-44642380D02*
X157430000Y-44600000D01*
X149620000Y-44642380D02*
X157387620Y-44642380D01*
X141980120Y-37002500D02*
X149620000Y-44642380D01*
X139436250Y-37002500D02*
X141980120Y-37002500D01*
%TO.N,+3V3*%
X141759880Y-55002500D02*
X149620000Y-47142380D01*
X139436250Y-55002500D02*
X141759880Y-55002500D01*
D22*
%TO.N,NEUT*%
X66330000Y-48500000D02*
X67540000Y-49710000D01*
X51960000Y-48500000D02*
X66330000Y-48500000D01*
%TO.N,Net-(C1-Pad1)*%
X62640000Y-35110000D02*
X69740000Y-42210000D01*
X62640000Y-35060000D02*
X62640000Y-35110000D01*
%TO.N,LINE*%
X51960000Y-37040000D02*
X53900000Y-35100000D01*
X51960000Y-43420000D02*
X51960000Y-37040000D01*
X53900000Y-35100000D02*
X60060000Y-35100000D01*
X60060000Y-35100000D02*
X60100000Y-35060000D01*
%TO.N,NEUT*%
X79523750Y-57210000D02*
X75040000Y-57210000D01*
X75040000Y-57210000D02*
X67540000Y-49710000D01*
%TO.N,Net-(C1-Pad1)*%
X77240000Y-34710000D02*
X69740000Y-42210000D01*
X79523750Y-34710000D02*
X77240000Y-34710000D01*
X96527500Y-38380000D02*
X97005000Y-38380000D01*
X92857500Y-34710000D02*
X96527500Y-38380000D01*
X79230000Y-34710000D02*
X92857500Y-34710000D01*
%TO.N,NEUT*%
X96447500Y-53620000D02*
X97005000Y-53620000D01*
X79230000Y-57210000D02*
X92857500Y-57210000D01*
X92857500Y-57210000D02*
X96447500Y-53620000D01*
%TO.N,Net-(PS1-AC{slash}L)*%
X90615000Y-38340000D02*
X90137500Y-38340000D01*
X105852500Y-43212500D02*
X95487500Y-43212500D01*
X95487500Y-43212500D02*
X90615000Y-38340000D01*
%TO.N,Net-(PS1-AC{slash}N)*%
X94505000Y-49212500D02*
X105852500Y-49212500D01*
X90177500Y-53620000D02*
X90137500Y-53580000D01*
X90137500Y-53580000D02*
X94505000Y-49212500D01*
X90655000Y-53620000D02*
X90177500Y-53620000D01*
%TD*%
M02*
