%TF.GenerationSoftware,KiCad,Pcbnew,8.0.0*%
%TF.CreationDate,2024-12-16T23:26:22-03:00*%
%TF.ProjectId,AC220vtoDC3v3,41433232-3076-4746-9f44-433376332e6b,rev?*%
%TF.SameCoordinates,Original*%
%TF.FileFunction,Legend,Top*%
%TF.FilePolarity,Positive*%
%FSLAX46Y46*%
G04 Gerber Fmt 4.6, Leading zero omitted, Abs format (unit mm)*
G04 Created by KiCad (PCBNEW 8.0.0) date 2024-12-16 23:26:22*
%MOMM*%
%LPD*%
G01*
G04 APERTURE LIST*
%ADD10C,0.100000*%
%ADD11C,0.150000*%
%ADD12C,0.120000*%
G04 APERTURE END LIST*
D10*
X47487580Y-51993884D02*
X48487580Y-51993884D01*
X48487580Y-51993884D02*
X47487580Y-52565312D01*
X47487580Y-52565312D02*
X48487580Y-52565312D01*
X48011390Y-53041503D02*
X48011390Y-53374836D01*
X47487580Y-53517693D02*
X47487580Y-53041503D01*
X47487580Y-53041503D02*
X48487580Y-53041503D01*
X48487580Y-53041503D02*
X48487580Y-53517693D01*
X48487580Y-53946265D02*
X47678057Y-53946265D01*
X47678057Y-53946265D02*
X47582819Y-53993884D01*
X47582819Y-53993884D02*
X47535200Y-54041503D01*
X47535200Y-54041503D02*
X47487580Y-54136741D01*
X47487580Y-54136741D02*
X47487580Y-54327217D01*
X47487580Y-54327217D02*
X47535200Y-54422455D01*
X47535200Y-54422455D02*
X47582819Y-54470074D01*
X47582819Y-54470074D02*
X47678057Y-54517693D01*
X47678057Y-54517693D02*
X48487580Y-54517693D01*
X48487580Y-54851027D02*
X48487580Y-55422455D01*
X47487580Y-55136741D02*
X48487580Y-55136741D01*
X47487580Y-37890074D02*
X47487580Y-37413884D01*
X47487580Y-37413884D02*
X48487580Y-37413884D01*
X47487580Y-38223408D02*
X48487580Y-38223408D01*
X47487580Y-38699598D02*
X48487580Y-38699598D01*
X48487580Y-38699598D02*
X47487580Y-39271026D01*
X47487580Y-39271026D02*
X48487580Y-39271026D01*
X48011390Y-39747217D02*
X48011390Y-40080550D01*
X47487580Y-40223407D02*
X47487580Y-39747217D01*
X47487580Y-39747217D02*
X48487580Y-39747217D01*
X48487580Y-39747217D02*
X48487580Y-40223407D01*
X156910038Y-41312306D02*
X156862419Y-41407544D01*
X156862419Y-41407544D02*
X156862419Y-41550401D01*
X156862419Y-41550401D02*
X156910038Y-41693258D01*
X156910038Y-41693258D02*
X157005276Y-41788496D01*
X157005276Y-41788496D02*
X157100514Y-41836115D01*
X157100514Y-41836115D02*
X157290990Y-41883734D01*
X157290990Y-41883734D02*
X157433847Y-41883734D01*
X157433847Y-41883734D02*
X157624323Y-41836115D01*
X157624323Y-41836115D02*
X157719561Y-41788496D01*
X157719561Y-41788496D02*
X157814800Y-41693258D01*
X157814800Y-41693258D02*
X157862419Y-41550401D01*
X157862419Y-41550401D02*
X157862419Y-41455163D01*
X157862419Y-41455163D02*
X157814800Y-41312306D01*
X157814800Y-41312306D02*
X157767180Y-41264687D01*
X157767180Y-41264687D02*
X157433847Y-41264687D01*
X157433847Y-41264687D02*
X157433847Y-41455163D01*
X157862419Y-40836115D02*
X156862419Y-40836115D01*
X156862419Y-40836115D02*
X157862419Y-40264687D01*
X157862419Y-40264687D02*
X156862419Y-40264687D01*
X157862419Y-39788496D02*
X156862419Y-39788496D01*
X156862419Y-39788496D02*
X156862419Y-39550401D01*
X156862419Y-39550401D02*
X156910038Y-39407544D01*
X156910038Y-39407544D02*
X157005276Y-39312306D01*
X157005276Y-39312306D02*
X157100514Y-39264687D01*
X157100514Y-39264687D02*
X157290990Y-39217068D01*
X157290990Y-39217068D02*
X157433847Y-39217068D01*
X157433847Y-39217068D02*
X157624323Y-39264687D01*
X157624323Y-39264687D02*
X157719561Y-39312306D01*
X157719561Y-39312306D02*
X157814800Y-39407544D01*
X157814800Y-39407544D02*
X157862419Y-39550401D01*
X157862419Y-39550401D02*
X157862419Y-39788496D01*
X157771466Y-53226115D02*
X157771466Y-52464211D01*
X158152419Y-52845163D02*
X157390514Y-52845163D01*
X157152419Y-52083258D02*
X157152419Y-51464211D01*
X157152419Y-51464211D02*
X157533371Y-51797544D01*
X157533371Y-51797544D02*
X157533371Y-51654687D01*
X157533371Y-51654687D02*
X157580990Y-51559449D01*
X157580990Y-51559449D02*
X157628609Y-51511830D01*
X157628609Y-51511830D02*
X157723847Y-51464211D01*
X157723847Y-51464211D02*
X157961942Y-51464211D01*
X157961942Y-51464211D02*
X158057180Y-51511830D01*
X158057180Y-51511830D02*
X158104800Y-51559449D01*
X158104800Y-51559449D02*
X158152419Y-51654687D01*
X158152419Y-51654687D02*
X158152419Y-51940401D01*
X158152419Y-51940401D02*
X158104800Y-52035639D01*
X158104800Y-52035639D02*
X158057180Y-52083258D01*
X157152419Y-51178496D02*
X158152419Y-50845163D01*
X158152419Y-50845163D02*
X157152419Y-50511830D01*
X157152419Y-50273734D02*
X157152419Y-49654687D01*
X157152419Y-49654687D02*
X157533371Y-49988020D01*
X157533371Y-49988020D02*
X157533371Y-49845163D01*
X157533371Y-49845163D02*
X157580990Y-49749925D01*
X157580990Y-49749925D02*
X157628609Y-49702306D01*
X157628609Y-49702306D02*
X157723847Y-49654687D01*
X157723847Y-49654687D02*
X157961942Y-49654687D01*
X157961942Y-49654687D02*
X158057180Y-49702306D01*
X158057180Y-49702306D02*
X158104800Y-49749925D01*
X158104800Y-49749925D02*
X158152419Y-49845163D01*
X158152419Y-49845163D02*
X158152419Y-50130877D01*
X158152419Y-50130877D02*
X158104800Y-50226115D01*
X158104800Y-50226115D02*
X158057180Y-50273734D01*
D11*
X87134819Y-46046666D02*
X87134819Y-46522856D01*
X87134819Y-46522856D02*
X86134819Y-46522856D01*
X87134819Y-45189523D02*
X87134819Y-45760951D01*
X87134819Y-45475237D02*
X86134819Y-45475237D01*
X86134819Y-45475237D02*
X86277676Y-45570475D01*
X86277676Y-45570475D02*
X86372914Y-45665713D01*
X86372914Y-45665713D02*
X86420533Y-45760951D01*
X145579580Y-46059046D02*
X145627200Y-46106665D01*
X145627200Y-46106665D02*
X145674819Y-46249522D01*
X145674819Y-46249522D02*
X145674819Y-46344760D01*
X145674819Y-46344760D02*
X145627200Y-46487617D01*
X145627200Y-46487617D02*
X145531961Y-46582855D01*
X145531961Y-46582855D02*
X145436723Y-46630474D01*
X145436723Y-46630474D02*
X145246247Y-46678093D01*
X145246247Y-46678093D02*
X145103390Y-46678093D01*
X145103390Y-46678093D02*
X144912914Y-46630474D01*
X144912914Y-46630474D02*
X144817676Y-46582855D01*
X144817676Y-46582855D02*
X144722438Y-46487617D01*
X144722438Y-46487617D02*
X144674819Y-46344760D01*
X144674819Y-46344760D02*
X144674819Y-46249522D01*
X144674819Y-46249522D02*
X144722438Y-46106665D01*
X144722438Y-46106665D02*
X144770057Y-46059046D01*
X144770057Y-45678093D02*
X144722438Y-45630474D01*
X144722438Y-45630474D02*
X144674819Y-45535236D01*
X144674819Y-45535236D02*
X144674819Y-45297141D01*
X144674819Y-45297141D02*
X144722438Y-45201903D01*
X144722438Y-45201903D02*
X144770057Y-45154284D01*
X144770057Y-45154284D02*
X144865295Y-45106665D01*
X144865295Y-45106665D02*
X144960533Y-45106665D01*
X144960533Y-45106665D02*
X145103390Y-45154284D01*
X145103390Y-45154284D02*
X145674819Y-45725712D01*
X145674819Y-45725712D02*
X145674819Y-45106665D01*
X65194819Y-46015238D02*
X64718628Y-46348571D01*
X65194819Y-46586666D02*
X64194819Y-46586666D01*
X64194819Y-46586666D02*
X64194819Y-46205714D01*
X64194819Y-46205714D02*
X64242438Y-46110476D01*
X64242438Y-46110476D02*
X64290057Y-46062857D01*
X64290057Y-46062857D02*
X64385295Y-46015238D01*
X64385295Y-46015238D02*
X64528152Y-46015238D01*
X64528152Y-46015238D02*
X64623390Y-46062857D01*
X64623390Y-46062857D02*
X64671009Y-46110476D01*
X64671009Y-46110476D02*
X64718628Y-46205714D01*
X64718628Y-46205714D02*
X64718628Y-46586666D01*
X64194819Y-45729523D02*
X65194819Y-45396190D01*
X65194819Y-45396190D02*
X64194819Y-45062857D01*
X65194819Y-44205714D02*
X65194819Y-44777142D01*
X65194819Y-44491428D02*
X64194819Y-44491428D01*
X64194819Y-44491428D02*
X64337676Y-44586666D01*
X64337676Y-44586666D02*
X64432914Y-44681904D01*
X64432914Y-44681904D02*
X64480533Y-44777142D01*
X65341009Y-35393333D02*
X65341009Y-35726666D01*
X65864819Y-35726666D02*
X64864819Y-35726666D01*
X64864819Y-35726666D02*
X64864819Y-35250476D01*
X65864819Y-34345714D02*
X65864819Y-34917142D01*
X65864819Y-34631428D02*
X64864819Y-34631428D01*
X64864819Y-34631428D02*
X65007676Y-34726666D01*
X65007676Y-34726666D02*
X65102914Y-34821904D01*
X65102914Y-34821904D02*
X65150533Y-34917142D01*
X154036666Y-47864819D02*
X154036666Y-48579104D01*
X154036666Y-48579104D02*
X153989047Y-48721961D01*
X153989047Y-48721961D02*
X153893809Y-48817200D01*
X153893809Y-48817200D02*
X153750952Y-48864819D01*
X153750952Y-48864819D02*
X153655714Y-48864819D01*
X154465238Y-47960057D02*
X154512857Y-47912438D01*
X154512857Y-47912438D02*
X154608095Y-47864819D01*
X154608095Y-47864819D02*
X154846190Y-47864819D01*
X154846190Y-47864819D02*
X154941428Y-47912438D01*
X154941428Y-47912438D02*
X154989047Y-47960057D01*
X154989047Y-47960057D02*
X155036666Y-48055295D01*
X155036666Y-48055295D02*
X155036666Y-48150533D01*
X155036666Y-48150533D02*
X154989047Y-48293390D01*
X154989047Y-48293390D02*
X154417619Y-48864819D01*
X154417619Y-48864819D02*
X155036666Y-48864819D01*
X73689580Y-45896666D02*
X73737200Y-45944285D01*
X73737200Y-45944285D02*
X73784819Y-46087142D01*
X73784819Y-46087142D02*
X73784819Y-46182380D01*
X73784819Y-46182380D02*
X73737200Y-46325237D01*
X73737200Y-46325237D02*
X73641961Y-46420475D01*
X73641961Y-46420475D02*
X73546723Y-46468094D01*
X73546723Y-46468094D02*
X73356247Y-46515713D01*
X73356247Y-46515713D02*
X73213390Y-46515713D01*
X73213390Y-46515713D02*
X73022914Y-46468094D01*
X73022914Y-46468094D02*
X72927676Y-46420475D01*
X72927676Y-46420475D02*
X72832438Y-46325237D01*
X72832438Y-46325237D02*
X72784819Y-46182380D01*
X72784819Y-46182380D02*
X72784819Y-46087142D01*
X72784819Y-46087142D02*
X72832438Y-45944285D01*
X72832438Y-45944285D02*
X72880057Y-45896666D01*
X73784819Y-44944285D02*
X73784819Y-45515713D01*
X73784819Y-45229999D02*
X72784819Y-45229999D01*
X72784819Y-45229999D02*
X72927676Y-45325237D01*
X72927676Y-45325237D02*
X73022914Y-45420475D01*
X73022914Y-45420475D02*
X73070533Y-45515713D01*
D10*
X58056666Y-41247419D02*
X58056666Y-41961704D01*
X58056666Y-41961704D02*
X58009047Y-42104561D01*
X58009047Y-42104561D02*
X57913809Y-42199800D01*
X57913809Y-42199800D02*
X57770952Y-42247419D01*
X57770952Y-42247419D02*
X57675714Y-42247419D01*
X59056666Y-42247419D02*
X58485238Y-42247419D01*
X58770952Y-42247419D02*
X58770952Y-41247419D01*
X58770952Y-41247419D02*
X58675714Y-41390276D01*
X58675714Y-41390276D02*
X58580476Y-41485514D01*
X58580476Y-41485514D02*
X58485238Y-41533133D01*
D11*
X103121964Y-32667319D02*
X103121964Y-31667319D01*
X103121964Y-31667319D02*
X103502916Y-31667319D01*
X103502916Y-31667319D02*
X103598154Y-31714938D01*
X103598154Y-31714938D02*
X103645773Y-31762557D01*
X103645773Y-31762557D02*
X103693392Y-31857795D01*
X103693392Y-31857795D02*
X103693392Y-32000652D01*
X103693392Y-32000652D02*
X103645773Y-32095890D01*
X103645773Y-32095890D02*
X103598154Y-32143509D01*
X103598154Y-32143509D02*
X103502916Y-32191128D01*
X103502916Y-32191128D02*
X103121964Y-32191128D01*
X104074345Y-32619700D02*
X104217202Y-32667319D01*
X104217202Y-32667319D02*
X104455297Y-32667319D01*
X104455297Y-32667319D02*
X104550535Y-32619700D01*
X104550535Y-32619700D02*
X104598154Y-32572080D01*
X104598154Y-32572080D02*
X104645773Y-32476842D01*
X104645773Y-32476842D02*
X104645773Y-32381604D01*
X104645773Y-32381604D02*
X104598154Y-32286366D01*
X104598154Y-32286366D02*
X104550535Y-32238747D01*
X104550535Y-32238747D02*
X104455297Y-32191128D01*
X104455297Y-32191128D02*
X104264821Y-32143509D01*
X104264821Y-32143509D02*
X104169583Y-32095890D01*
X104169583Y-32095890D02*
X104121964Y-32048271D01*
X104121964Y-32048271D02*
X104074345Y-31953033D01*
X104074345Y-31953033D02*
X104074345Y-31857795D01*
X104074345Y-31857795D02*
X104121964Y-31762557D01*
X104121964Y-31762557D02*
X104169583Y-31714938D01*
X104169583Y-31714938D02*
X104264821Y-31667319D01*
X104264821Y-31667319D02*
X104502916Y-31667319D01*
X104502916Y-31667319D02*
X104645773Y-31714938D01*
X105598154Y-32667319D02*
X105026726Y-32667319D01*
X105312440Y-32667319D02*
X105312440Y-31667319D01*
X105312440Y-31667319D02*
X105217202Y-31810176D01*
X105217202Y-31810176D02*
X105121964Y-31905414D01*
X105121964Y-31905414D02*
X105026726Y-31953033D01*
D12*
%TO.C,L1*%
X98830500Y-36188000D02*
X87794500Y-36188000D01*
X98830500Y-36188000D02*
X98830500Y-55732000D01*
X87794500Y-36188000D02*
X87794500Y-55732000D01*
X98830500Y-55732000D02*
X87794500Y-55732000D01*
%TO.C,C2*%
X152890000Y-45892380D02*
G75*
G02*
X146350000Y-45892380I-3270000J0D01*
G01*
X146350000Y-45892380D02*
G75*
G02*
X152890000Y-45892380I3270000J0D01*
G01*
X150660000Y-45652380D02*
X152842000Y-45652380D01*
X150660000Y-45612380D02*
X152838000Y-45612380D01*
X150660000Y-45572380D02*
X152835000Y-45572380D01*
X150660000Y-45532380D02*
X152831000Y-45532380D01*
X150660000Y-45492380D02*
X152826000Y-45492380D01*
X150660000Y-45452380D02*
X152821000Y-45452380D01*
X150660000Y-45412380D02*
X152815000Y-45412380D01*
X150660000Y-45372380D02*
X152809000Y-45372380D01*
X150660000Y-45332380D02*
X152802000Y-45332380D01*
X150660000Y-45292380D02*
X152795000Y-45292380D01*
X150660000Y-45252380D02*
X152787000Y-45252380D01*
X150660000Y-45212380D02*
X152779000Y-45212380D01*
X150660000Y-45171380D02*
X152770000Y-45171380D01*
X150660000Y-45131380D02*
X152761000Y-45131380D01*
X150660000Y-45091380D02*
X152751000Y-45091380D01*
X150660000Y-45051380D02*
X152741000Y-45051380D01*
X150660000Y-45011380D02*
X152730000Y-45011380D01*
X150660000Y-44971380D02*
X152718000Y-44971380D01*
X150660000Y-44931380D02*
X152706000Y-44931380D01*
X150660000Y-44891380D02*
X152694000Y-44891380D01*
X150660000Y-44851380D02*
X152681000Y-44851380D01*
X150660000Y-44811380D02*
X152667000Y-44811380D01*
X150660000Y-44771380D02*
X152653000Y-44771380D01*
X150660000Y-44731380D02*
X152638000Y-44731380D01*
X150660000Y-44691380D02*
X152622000Y-44691380D01*
X150660000Y-44651380D02*
X152606000Y-44651380D01*
X150660000Y-44611380D02*
X152590000Y-44611380D01*
X150660000Y-44571380D02*
X152572000Y-44571380D01*
X150660000Y-44531380D02*
X152554000Y-44531380D01*
X150660000Y-44491380D02*
X152536000Y-44491380D01*
X150660000Y-44451380D02*
X152516000Y-44451380D01*
X150660000Y-44411380D02*
X152496000Y-44411380D01*
X150660000Y-44371380D02*
X152476000Y-44371380D01*
X150660000Y-44331380D02*
X152454000Y-44331380D01*
X150660000Y-44291380D02*
X152432000Y-44291380D01*
X150660000Y-44251380D02*
X152410000Y-44251380D01*
X150660000Y-44211380D02*
X152386000Y-44211380D01*
X150660000Y-44171380D02*
X152362000Y-44171380D01*
X150660000Y-44131380D02*
X152336000Y-44131380D01*
X150660000Y-44091380D02*
X152310000Y-44091380D01*
X150660000Y-44051380D02*
X152284000Y-44051380D01*
X150660000Y-44011380D02*
X152256000Y-44011380D01*
X150660000Y-43971380D02*
X152227000Y-43971380D01*
X150660000Y-43931380D02*
X152198000Y-43931380D01*
X150660000Y-43891380D02*
X152168000Y-43891380D01*
X150660000Y-43851380D02*
X152136000Y-43851380D01*
X150660000Y-43811380D02*
X152104000Y-43811380D01*
X150660000Y-43771380D02*
X152070000Y-43771380D01*
X150660000Y-43731380D02*
X152036000Y-43731380D01*
X150660000Y-43691380D02*
X152000000Y-43691380D01*
X150660000Y-43651380D02*
X151963000Y-43651380D01*
X150660000Y-43611380D02*
X151925000Y-43611380D01*
X149218000Y-42651380D02*
X150022000Y-42651380D01*
X148987000Y-42691380D02*
X150253000Y-42691380D01*
X148818000Y-42731380D02*
X150422000Y-42731380D01*
X148680000Y-42771380D02*
X150560000Y-42771380D01*
X148561000Y-42811380D02*
X150679000Y-42811380D01*
X148455000Y-42851380D02*
X150785000Y-42851380D01*
X148358000Y-42891380D02*
X150882000Y-42891380D01*
X148270000Y-42931380D02*
X150970000Y-42931380D01*
X148188000Y-42971380D02*
X151052000Y-42971380D01*
X148111000Y-43011380D02*
X151129000Y-43011380D01*
X148039000Y-43051380D02*
X151201000Y-43051380D01*
X147970000Y-43091380D02*
X151270000Y-43091380D01*
X147906000Y-43131380D02*
X151334000Y-43131380D01*
X147844000Y-43171380D02*
X151396000Y-43171380D01*
X147786000Y-43211380D02*
X151454000Y-43211380D01*
X147781000Y-49392621D02*
X147781000Y-48762621D01*
X147730000Y-43251380D02*
X151510000Y-43251380D01*
X147676000Y-43291380D02*
X151564000Y-43291380D01*
X147625000Y-43331380D02*
X151615000Y-43331380D01*
X147576000Y-43371380D02*
X151664000Y-43371380D01*
X147528000Y-43411380D02*
X151712000Y-43411380D01*
X147483000Y-43451380D02*
X151757000Y-43451380D01*
X147466000Y-49077621D02*
X148096000Y-49077621D01*
X147438000Y-43491380D02*
X151802000Y-43491380D01*
X147396000Y-43531380D02*
X151844000Y-43531380D01*
X147355000Y-43571380D02*
X151885000Y-43571380D01*
X147315000Y-43611380D02*
X148580000Y-43611380D01*
X147277000Y-43651380D02*
X148580000Y-43651380D01*
X147240000Y-43691380D02*
X148580000Y-43691380D01*
X147204000Y-43731380D02*
X148580000Y-43731380D01*
X147170000Y-43771380D02*
X148580000Y-43771380D01*
X147136000Y-43811380D02*
X148580000Y-43811380D01*
X147104000Y-43851380D02*
X148580000Y-43851380D01*
X147072000Y-43891380D02*
X148580000Y-43891380D01*
X147042000Y-43931380D02*
X148580000Y-43931380D01*
X147013000Y-43971380D02*
X148580000Y-43971380D01*
X146984000Y-44011380D02*
X148580000Y-44011380D01*
X146956000Y-44051380D02*
X148580000Y-44051380D01*
X146930000Y-44091380D02*
X148580000Y-44091380D01*
X146904000Y-44131380D02*
X148580000Y-44131380D01*
X146878000Y-44171380D02*
X148580000Y-44171380D01*
X146854000Y-44211380D02*
X148580000Y-44211380D01*
X146830000Y-44251380D02*
X148580000Y-44251380D01*
X146808000Y-44291380D02*
X148580000Y-44291380D01*
X146786000Y-44331380D02*
X148580000Y-44331380D01*
X146764000Y-44371380D02*
X148580000Y-44371380D01*
X146744000Y-44411380D02*
X148580000Y-44411380D01*
X146724000Y-44451380D02*
X148580000Y-44451380D01*
X146704000Y-44491380D02*
X148580000Y-44491380D01*
X146686000Y-44531380D02*
X148580000Y-44531380D01*
X146668000Y-44571380D02*
X148580000Y-44571380D01*
X146650000Y-44611380D02*
X148580000Y-44611380D01*
X146634000Y-44651380D02*
X148580000Y-44651380D01*
X146618000Y-44691380D02*
X148580000Y-44691380D01*
X146602000Y-44731380D02*
X148580000Y-44731380D01*
X146587000Y-44771380D02*
X148580000Y-44771380D01*
X146573000Y-44811380D02*
X148580000Y-44811380D01*
X146559000Y-44851380D02*
X148580000Y-44851380D01*
X146546000Y-44891380D02*
X148580000Y-44891380D01*
X146534000Y-44931380D02*
X148580000Y-44931380D01*
X146522000Y-44971380D02*
X148580000Y-44971380D01*
X146510000Y-45011380D02*
X148580000Y-45011380D01*
X146499000Y-45051380D02*
X148580000Y-45051380D01*
X146489000Y-45091380D02*
X148580000Y-45091380D01*
X146479000Y-45131380D02*
X148580000Y-45131380D01*
X146470000Y-45171380D02*
X148580000Y-45171380D01*
X146461000Y-45212380D02*
X148580000Y-45212380D01*
X146453000Y-45252380D02*
X148580000Y-45252380D01*
X146445000Y-45292380D02*
X148580000Y-45292380D01*
X146438000Y-45332380D02*
X148580000Y-45332380D01*
X146431000Y-45372380D02*
X148580000Y-45372380D01*
X146425000Y-45412380D02*
X148580000Y-45412380D01*
X146419000Y-45452380D02*
X148580000Y-45452380D01*
X146414000Y-45492380D02*
X148580000Y-45492380D01*
X146409000Y-45532380D02*
X148580000Y-45532380D01*
X146405000Y-45572380D02*
X148580000Y-45572380D01*
X146402000Y-45612380D02*
X148580000Y-45612380D01*
X146398000Y-45652380D02*
X148580000Y-45652380D01*
X146396000Y-45692380D02*
X152844000Y-45692380D01*
X146393000Y-45732380D02*
X152847000Y-45732380D01*
X146392000Y-45772380D02*
X152848000Y-45772380D01*
X146390000Y-45892380D02*
X152850000Y-45892380D01*
X146390000Y-45852380D02*
X152850000Y-45852380D01*
X146390000Y-45812380D02*
X152850000Y-45812380D01*
D11*
%TO.C,RV1*%
X71140000Y-51960000D02*
X71140000Y-39960000D01*
X66140000Y-51960000D02*
X71140000Y-51960000D01*
X66140000Y-51960000D02*
X66140000Y-39960000D01*
X66140000Y-39960000D02*
X71140000Y-39960000D01*
D12*
%TO.C,F1*%
X58770000Y-33730000D02*
X58770000Y-36390000D01*
X61370000Y-33730000D02*
X58770000Y-33730000D01*
X61370000Y-33730000D02*
X61370000Y-36390000D01*
X61370000Y-36390000D02*
X58770000Y-36390000D01*
X63970000Y-35060000D02*
X63970000Y-36390000D01*
X63970000Y-36390000D02*
X62640000Y-36390000D01*
%TO.C,J2*%
X158760000Y-45870000D02*
X158760000Y-43270000D01*
X158760000Y-45870000D02*
X156100000Y-45870000D01*
X158760000Y-43270000D02*
X156100000Y-43270000D01*
X157430000Y-48470000D02*
X156100000Y-48470000D01*
X156100000Y-48470000D02*
X156100000Y-47140000D01*
X156100000Y-45870000D02*
X156100000Y-43270000D01*
%TO.C,C1*%
X74353750Y-33840000D02*
X74353750Y-58080000D01*
X78338750Y-33840000D02*
X74353750Y-33840000D01*
X78338750Y-58080000D02*
X74353750Y-58080000D01*
X84693750Y-33840000D02*
X80708750Y-33840000D01*
X84693750Y-33840000D02*
X84693750Y-58080000D01*
X84693750Y-58080000D02*
X80708750Y-58080000D01*
%TO.C,J1*%
D10*
X57260000Y-44670000D02*
X53760000Y-44670000D01*
X53760000Y-42130000D01*
X57260000Y-42130000D01*
X57260000Y-44670000D01*
X57260000Y-49790000D02*
X53760000Y-49790000D01*
X53760000Y-47250000D01*
X57260000Y-47250000D01*
X57260000Y-49790000D01*
X57260000Y-50960000D02*
X46960000Y-50960000D01*
X46960000Y-40960000D01*
X57260000Y-40960000D01*
X57260000Y-50960000D01*
D12*
%TO.C,PS1*%
X143196250Y-33192500D02*
X143196250Y-58812500D01*
X102076250Y-58812500D02*
X143196250Y-58812500D01*
X102076250Y-33192500D02*
X143196250Y-33192500D01*
X102076250Y-33192500D02*
X102076250Y-58812500D01*
X101836250Y-35952500D02*
X101836250Y-32952500D01*
X101836250Y-32952500D02*
X104836250Y-32952500D01*
%TD*%
M02*
